<svg width="181" height="96" viewBox="0 0 181 96" fill="none" xmlns="http://www.w3.org/2000/svg">
<rect x="0.916302" y="0.674236" width="178.999" height="94.2657" rx="3.70708" stroke="#AFB1B8" stroke-width="1.05917"/>
<path d="M75.9532 69.832C75.9691 69.8324 75.9848 69.8359 75.9993 69.8421C76.0138 69.8483 76.0268 69.8573 76.0377 69.8684L76.2556 70.0968C76.0865 70.2817 75.8774 70.4296 75.6427 70.5303C75.3678 70.6403 75.0716 70.6934 74.7736 70.6861C74.4936 70.6916 74.2154 70.6421 73.9563 70.5407C73.7226 70.4476 73.5126 70.3077 73.3406 70.1305C73.165 69.9468 73.0298 69.7314 72.9429 69.4971C72.8476 69.236 72.8006 68.9611 72.8039 68.6846C72.8001 68.4064 72.8509 68.1299 72.9538 67.8695C73.0489 67.6337 73.1925 67.4184 73.376 67.2361C73.5621 67.0573 73.7846 66.9168 74.0299 66.8233C74.2982 66.7242 74.5839 66.6748 74.8717 66.6779C75.139 66.6717 75.4049 66.7168 75.6536 66.8103C75.8693 66.8995 76.0674 67.0233 76.2393 67.1764L76.0568 67.4204C76.0441 67.4376 76.0285 67.4525 76.0104 67.4645C75.9889 67.4786 75.9629 67.485 75.9369 67.4827C75.9086 67.4808 75.8814 67.4719 75.8579 67.4567L75.7598 67.3918L75.6236 67.3087C75.5648 67.2779 75.5038 67.251 75.4411 67.2283C75.3603 67.2007 75.2774 67.179 75.1931 67.1634C75.0862 67.1446 74.9776 67.1359 74.869 67.1374C74.6617 67.1349 74.4561 67.172 74.2642 67.2464C74.0851 67.3154 73.9236 67.4198 73.7901 67.5528C73.6543 67.6942 73.5496 67.8601 73.4823 68.0408C73.4055 68.2475 73.3677 68.4654 73.3706 68.6846C73.3673 68.9072 73.4051 69.1286 73.4823 69.3388C73.5488 69.5179 73.6515 69.6828 73.7847 69.8242C73.9094 69.956 74.0641 70.059 74.2369 70.1253C74.4147 70.1956 74.6056 70.2309 74.7981 70.2292C74.9093 70.2308 75.0205 70.2239 75.1305 70.2084C75.3101 70.1875 75.4825 70.1281 75.6345 70.0345C75.7107 69.9866 75.7827 69.9327 75.8497 69.8735C75.8777 69.8481 75.9145 69.8333 75.9532 69.832Z" fill="#AFB1B8"/>
<path d="M82.2468 68.6842C82.2502 68.9596 82.2003 69.2333 82.0997 69.4915C82.0109 69.7257 81.871 69.9393 81.6893 70.1183C81.5076 70.2972 81.2881 70.4375 81.0454 70.5298C80.512 70.7236 79.9224 70.7236 79.389 70.5298C79.1478 70.4361 78.9298 70.2955 78.7488 70.117C78.5672 69.9348 78.4263 69.7193 78.3347 69.4837C78.1384 68.9608 78.1384 68.3894 78.3347 67.8665C78.4276 67.6307 78.5683 67.4146 78.7488 67.2306C78.9313 67.0577 79.1492 66.9225 79.389 66.8334C79.9217 66.6361 80.5127 66.6361 81.0454 66.8334C81.2874 66.9271 81.5063 67.0676 81.6883 67.2461C81.8676 67.4266 82.0075 67.6392 82.0997 67.8717C82.2006 68.1316 82.2505 68.407 82.2468 68.6842ZM81.6747 68.6842C81.679 68.4638 81.644 68.2444 81.5711 68.0352C81.5101 67.856 81.4109 67.6908 81.2796 67.5498C81.1519 67.4165 80.9947 67.3118 80.8192 67.2435C80.4317 67.1016 80.0027 67.1016 79.6151 67.2435C79.4397 67.3118 79.2824 67.4165 79.1547 67.5498C79.0217 67.69 78.9214 67.8554 78.8605 68.0352C78.7219 68.4578 78.7219 68.9106 78.8605 69.3331C78.922 69.5127 79.0222 69.678 79.1547 69.8185C79.2826 69.9511 79.4399 70.0548 79.6151 70.1222C80.0034 70.2605 80.431 70.2605 80.8192 70.1222C80.9945 70.0548 81.1518 69.9511 81.2796 69.8185C81.4103 69.6772 81.5095 69.512 81.5711 69.3331C81.6443 69.124 81.6793 68.9045 81.6747 68.6842Z" fill="#AFB1B8"/>
<path d="M86.5393 69.3645L86.5965 69.5098C86.6183 69.4579 86.6374 69.4112 86.6592 69.3645C86.68 69.3157 86.7036 69.268 86.73 69.2217L88.1222 66.8106C88.1494 66.7691 88.1739 66.7431 88.2012 66.7353C88.2382 66.7246 88.2769 66.7202 88.3156 66.7223H88.727V70.644H88.2393V67.7605C88.2393 67.7242 88.2393 67.6826 88.2393 67.6385C88.2367 67.5936 88.2367 67.5485 88.2393 67.5036L86.839 69.9485C86.8212 69.9851 86.7928 70.016 86.757 70.0377C86.7213 70.0593 86.6798 70.0707 86.6374 70.0704H86.5584C86.516 70.071 86.4743 70.0598 86.4385 70.0381C86.4027 70.0164 86.3743 69.9853 86.3568 69.9485L84.9156 67.488C84.9156 67.5347 84.9156 67.5814 84.9156 67.6281C84.9156 67.6749 84.9156 67.7164 84.9156 67.7527V70.6362H84.4443V66.7223H84.8557C84.8944 66.7202 84.9331 66.7246 84.9701 66.7353C85.0039 66.7513 85.0309 66.7779 85.0464 66.8106L86.4685 69.2243C86.4964 69.2689 86.5202 69.3158 86.5393 69.3645Z" fill="#AFB1B8"/>
<path d="M91.7783 69.1696V70.6386H91.2334V66.7222H92.4484C92.6778 66.718 92.9065 66.7469 93.1268 66.8078C93.3032 66.8555 93.4667 66.9387 93.6063 67.0518C93.7273 67.1579 93.8206 67.2894 93.8787 67.4359C93.943 67.5957 93.9745 67.7657 93.9713 67.9368C93.9737 68.1086 93.9395 68.279 93.8705 68.4377C93.805 68.588 93.7044 68.722 93.5763 68.8296C93.4365 68.9475 93.2722 69.0359 93.0941 69.0892C92.882 69.1537 92.6602 69.1844 92.4376 69.18L91.7783 69.1696ZM91.7783 68.7492H92.4376C92.5808 68.7509 92.7233 68.7308 92.8598 68.6895C92.9724 68.6534 93.0762 68.596 93.1649 68.5208C93.2468 68.449 93.3102 68.3602 93.3502 68.2612C93.3948 68.1566 93.417 68.0446 93.4156 67.9316C93.4219 67.8228 93.4033 67.7139 93.3609 67.6126C93.3186 67.5113 93.2536 67.42 93.1704 67.3451C92.9623 67.1903 92.7008 67.1153 92.4376 67.1349H91.7783V68.7492Z" fill="#AFB1B8"/>
<path d="M99.1018 70.6439H98.6713C98.6282 70.6455 98.5858 70.6326 98.5515 70.6076C98.5206 70.5831 98.4963 70.552 98.4806 70.5167L98.1101 69.5693H96.2494L95.8653 70.5167C95.8512 70.5513 95.8277 70.5818 95.7972 70.605C95.7625 70.6315 95.719 70.6454 95.6746 70.6439H95.2441L96.8787 66.7218H97.4454L99.1018 70.6439ZM96.4047 69.1877H97.9412L97.2928 67.5914C97.2433 67.4713 97.2023 67.3481 97.1702 67.2228L97.1076 67.4278C97.0885 67.4901 97.0667 67.5472 97.0476 67.594L96.4047 69.1877Z" fill="#AFB1B8"/>
<path d="M101.455 66.7401C101.488 66.7571 101.516 66.7811 101.537 66.8101L103.921 69.7666C103.921 69.7199 103.921 69.6731 103.921 69.629C103.921 69.5849 103.921 69.5408 103.921 69.4992V66.7219H104.408V70.6439H104.136C104.097 70.645 104.059 70.637 104.024 70.6206C103.991 70.6019 103.961 70.5772 103.937 70.5479L101.556 67.594C101.559 67.639 101.559 67.684 101.556 67.729C101.556 67.7731 101.556 67.8121 101.556 67.8484V70.6439H101.068V66.7219H101.357C101.391 66.721 101.424 66.7272 101.455 66.7401Z" fill="#AFB1B8"/>
<path d="M108.424 69.0841V70.6415H107.88V69.0841L106.373 66.7221H106.861C106.903 66.7197 106.944 66.7317 106.978 66.7558C107.008 66.781 107.032 66.8109 107.051 66.8441L107.994 68.3677C108.032 68.4326 108.065 68.4923 108.092 68.5494C108.119 68.6065 108.141 68.6611 108.16 68.7156L108.231 68.5468C108.257 68.4852 108.288 68.4253 108.324 68.3677L109.253 66.8337C109.272 66.8031 109.296 66.7751 109.324 66.7507C109.356 66.7238 109.398 66.7098 109.441 66.7117H109.934L108.424 69.0841Z" fill="#AFB1B8"/>
<path d="M86.2695 60.1403C86.5065 60.1688 86.7463 60.1922 86.9888 60.2129C90.6647 58.6463 93.7744 56.0821 95.9292 52.8408C98.084 49.5996 99.1882 45.8252 99.1039 41.9894L95.0528 38.1298C95.8765 42.2137 95.4912 46.4355 93.94 50.3227C92.3888 54.2099 89.7329 57.6092 86.2695 60.1403Z" fill="#AFB1B8"/>
<path d="M84.8232 59.9608L84.9322 59.9816C88.6332 57.4595 91.4549 53.9376 93.0323 49.8713C94.6098 45.805 94.8705 41.3813 93.7808 37.1723L88.0107 31.675C90.3446 36.1937 91.284 41.2507 90.7197 46.258C90.1555 51.2654 88.1107 56.0172 84.8232 59.9608Z" fill="#AFB1B8"/>
<path d="M104.393 46.5215C103.412 50.7361 101.031 54.5372 97.6035 57.3604C96.6024 58.1895 95.5226 58.928 94.3779 59.5666C97.1692 58.785 99.7348 57.403 101.877 55.5274C104.019 53.6518 105.68 51.3325 106.733 48.7484L104.393 46.5215Z" fill="#AFB1B8"/>
<path d="M103.475 45.9008L100.143 42.7264C100.079 46.3456 98.9991 49.8825 97.0152 52.9694C95.0313 56.0564 92.2158 58.5808 88.8613 60.2802H88.8777C89.6252 60.28 90.3721 60.2375 91.1143 60.1531C94.2493 58.934 97.0187 56.9945 99.1754 54.5076C101.332 52.0207 102.809 49.0639 103.475 45.9008Z" fill="#AFB1B8"/>
<path d="M85.306 29.3568L81.3312 25.5647C77.7779 26.8729 74.7218 29.1727 72.5631 32.163C70.4044 35.1534 69.2435 38.695 69.2324 42.3243V42.3243C69.2457 46.3346 70.6625 50.2261 73.2585 53.383C75.8545 56.5398 79.4814 58.7816 83.5651 59.7536C87.2107 55.5219 89.3451 50.2931 89.6581 44.8267C89.9712 39.3603 88.4466 33.9412 85.306 29.3568Z" fill="#AFB1B8"/>
<path d="M112.659 45.317C112.644 40.559 110.654 35.9998 107.123 32.6354C103.591 29.271 98.8057 27.3748 93.8116 27.3611C91.5039 27.3588 89.2158 27.7645 87.0635 28.5576L111.4 51.7436C112.233 49.6941 112.66 47.515 112.659 45.317Z" fill="#AFB1B8"/>
</svg>
