<svg width="181" height="96" viewBox="0 0 181 96" fill="none" xmlns="http://www.w3.org/2000/svg">
<rect x="0.749309" y="0.674236" width="178.999" height="94.2657" rx="3.70708" stroke="#2196F3" stroke-width="1.05917"/>
<path d="M61.0182 39.1543H61.0154C58.6192 39.1543 56.6768 41.0472 56.6768 43.3822V43.385C56.6768 45.72 58.6192 47.6129 61.0154 47.6129H61.0182C63.4144 47.6129 65.3569 45.72 65.3569 43.385V43.3822C65.3569 41.0472 63.4144 39.1543 61.0182 39.1543Z" fill="#2196F3"/>
<path d="M93.0413 37.8027C93.0345 34.5595 91.7096 31.4509 89.3566 29.1573C87.0035 26.8638 83.814 25.5719 80.4859 25.5646V25.5646C77.1569 25.5705 73.9658 26.8616 71.6116 29.1554C69.2573 31.4491 67.9316 34.5585 67.9248 37.8027V55.6874C67.9248 55.6874 93.0385 52.9617 93.0413 37.8055V37.8027Z" fill="#2196F3"/>
<path d="M47.8818 61.5574C47.8879 63.8141 48.8103 65.9767 50.4474 67.5727C52.0846 69.1686 54.3035 70.0682 56.6191 70.0748C58.9343 70.0682 61.1527 69.169 62.7898 67.5737C64.4269 65.9783 65.3496 63.8164 65.3564 61.5602V49.1157C65.3564 49.1157 47.8818 51.0137 47.8818 61.5574ZM56.6191 63.7871C56.1666 63.7871 55.7242 63.6563 55.348 63.4113C54.9717 63.1663 54.6785 62.8181 54.5053 62.4107C54.3321 62.0033 54.2868 61.5549 54.3751 61.1224C54.4634 60.6899 54.6813 60.2926 55.0013 59.9808C55.3213 59.669 55.7289 59.4566 56.1728 59.3706C56.6166 59.2845 57.0766 59.3287 57.4947 59.4974C57.9128 59.6662 58.2701 59.952 58.5215 60.3187C58.7729 60.6853 58.9071 61.1164 58.9071 61.5574C58.9083 61.8509 58.8499 62.1418 58.7354 62.4132C58.621 62.6847 58.4526 62.9315 58.24 63.1395C58.0275 63.3474 57.7749 63.5124 57.4967 63.6249C57.2185 63.7375 56.9203 63.7955 56.6191 63.7955V63.7871Z" fill="#2196F3"/>
<path d="M74.4556 62.0487H72.6683V63.895H71.7374V59.377H74.679V60.1311H72.6683V61.2978H74.4556V62.0487ZM78.9302 61.7384C78.9302 62.1832 78.8516 62.5731 78.6944 62.9083C78.5371 63.2434 78.3117 63.502 78.0179 63.684C77.7262 63.8661 77.3911 63.9571 77.0125 63.9571C76.6381 63.9571 76.304 63.8671 76.0102 63.6871C75.7165 63.5071 75.4889 63.2506 75.3276 62.9176C75.1662 62.5824 75.0845 62.1977 75.0824 61.7632V61.5398C75.0824 61.0951 75.1621 60.7041 75.3214 60.3669C75.4827 60.0276 75.7092 59.768 76.0009 59.588C76.2947 59.406 76.6298 59.315 77.0063 59.315C77.3828 59.315 77.7169 59.406 78.0086 59.588C78.3023 59.768 78.5289 60.0276 78.6882 60.3669C78.8495 60.7041 78.9302 61.094 78.9302 61.5367V61.7384ZM77.9869 61.5336C77.9869 61.0599 77.9021 60.6999 77.7324 60.4538C77.5628 60.2076 77.3208 60.0845 77.0063 60.0845C76.6939 60.0845 76.4529 60.2066 76.2833 60.4507C76.1137 60.6927 76.0278 61.0485 76.0258 61.5181V61.7384C76.0258 62.1997 76.1106 62.5576 76.2802 62.8121C76.4498 63.0665 76.6939 63.1937 77.0125 63.1937C77.3249 63.1937 77.5649 63.0717 77.7324 62.8276C77.9 62.5814 77.9848 62.2235 77.9869 61.7539V61.5336ZM81.9494 62.7097C81.9494 62.5338 81.8874 62.3994 81.7632 62.3063C81.6391 62.2111 81.4157 62.1118 81.093 62.0084C80.7703 61.9029 80.5148 61.7994 80.3265 61.6981C79.8135 61.4209 79.557 61.0475 79.557 60.5779C79.557 60.3338 79.6253 60.1166 79.7618 59.9263C79.9004 59.7339 80.098 59.5839 80.3545 59.4763C80.6131 59.3687 80.9027 59.315 81.2233 59.315C81.546 59.315 81.8336 59.3739 82.086 59.4918C82.3383 59.6077 82.5338 59.7721 82.6724 59.9852C82.8131 60.1983 82.8834 60.4403 82.8834 60.7113H81.9525C81.9525 60.5044 81.8874 60.3441 81.757 60.2303C81.6267 60.1145 81.4436 60.0566 81.2078 60.0566C80.9803 60.0566 80.8034 60.1052 80.6772 60.2024C80.551 60.2976 80.4879 60.4238 80.4879 60.581C80.4879 60.7279 80.5613 60.851 80.7082 60.9502C80.8572 61.0495 81.0754 61.1426 81.363 61.2295C81.8925 61.3888 82.2784 61.5864 82.5204 61.8222C82.7624 62.058 82.8834 62.3518 82.8834 62.7035C82.8834 63.0944 82.7355 63.4016 82.4397 63.6251C82.1439 63.8464 81.7457 63.9571 81.245 63.9571C80.8975 63.9571 80.581 63.894 80.2955 63.7678C80.01 63.6395 79.7918 63.4647 79.6408 63.2434C79.4918 63.022 79.4174 62.7655 79.4174 62.4738H80.3514C80.3514 62.9724 80.6493 63.2217 81.245 63.2217C81.4664 63.2217 81.6391 63.1772 81.7632 63.0882C81.8874 62.9972 81.9494 62.871 81.9494 62.7097ZM86.9174 60.1311H85.5334V63.895H84.6025V60.1311H83.2372V59.377H86.9174V60.1311ZM90.1693 61.937H88.382V63.1472H90.4796V63.895H87.4511V59.377H90.4734V60.1311H88.382V61.2078H90.1693V61.937ZM92.6983 62.2411H91.9567V63.895H91.0258V59.377H92.7045C93.2382 59.377 93.6499 59.496 93.9395 59.7339C94.2291 59.9718 94.3739 60.3079 94.3739 60.7423C94.3739 61.0506 94.3067 61.3081 94.1722 61.515C94.0398 61.7198 93.8382 61.8832 93.5672 62.0053L94.5446 63.8516V63.895H93.5454L92.6983 62.2411ZM91.9567 61.4871H92.7076C92.9414 61.4871 93.1224 61.4281 93.2506 61.3102C93.3789 61.1902 93.443 61.0258 93.443 60.8168C93.443 60.6037 93.382 60.4362 93.26 60.3141C93.14 60.1921 92.9548 60.1311 92.7045 60.1311H91.9567V61.4871ZM97.598 62.3032V63.895H96.6671V59.377H98.4296C98.7689 59.377 99.0667 59.4391 99.3233 59.5632C99.5818 59.6873 99.7804 59.8642 99.919 60.0938C100.058 60.3214 100.127 60.581 100.127 60.8727C100.127 61.3154 99.9749 61.665 99.6708 61.9215C99.3688 62.1759 98.9499 62.3032 98.4141 62.3032H97.598ZM97.598 61.5491H98.4296C98.6758 61.5491 98.863 61.4912 98.9912 61.3754C99.1216 61.2595 99.1867 61.094 99.1867 60.8789C99.1867 60.6575 99.1216 60.4786 98.9912 60.3421C98.8609 60.2055 98.6809 60.1352 98.4513 60.1311H97.598V61.5491ZM103.488 61.937H101.7V63.1472H103.798V63.895H100.769V59.377H103.792V60.1311H101.7V61.2078H103.488V61.937ZM107.807 60.1311H106.423V63.895H105.492V60.1311H104.127V59.377H107.807V60.1311ZM111.059 61.937H109.272V63.1472H111.369V63.895H108.341V59.377H111.363V60.1311H109.272V61.2078H111.059V61.937ZM113.588 62.2411H112.846V63.895H111.915V59.377H113.594C114.128 59.377 114.539 59.496 114.829 59.7339C115.119 59.9718 115.264 60.3079 115.264 60.7423C115.264 61.0506 115.196 61.3081 115.062 61.515C114.929 61.7198 114.728 61.8832 114.457 62.0053L115.434 63.8516V63.895H114.435L113.588 62.2411ZM112.846 61.4871H113.597C113.831 61.4871 114.012 61.4281 114.14 61.3102C114.268 61.1902 114.333 61.0258 114.333 60.8168C114.333 60.6037 114.272 60.4362 114.15 60.3141C114.03 60.1921 113.844 60.1311 113.594 60.1311H112.846V61.4871ZM118.317 62.7097C118.317 62.5338 118.255 62.3994 118.131 62.3063C118.007 62.2111 117.783 62.1118 117.46 62.0084C117.138 61.9029 116.882 61.7994 116.694 61.6981C116.181 61.4209 115.924 61.0475 115.924 60.5779C115.924 60.3338 115.993 60.1166 116.129 59.9263C116.268 59.7339 116.465 59.5839 116.722 59.4763C116.981 59.3687 117.27 59.315 117.591 59.315C117.913 59.315 118.201 59.3739 118.453 59.4918C118.706 59.6077 118.901 59.7721 119.04 59.9852C119.181 60.1983 119.251 60.4403 119.251 60.7113H118.32C118.32 60.5044 118.255 60.3441 118.124 60.2303C117.994 60.1145 117.811 60.0566 117.575 60.0566C117.348 60.0566 117.171 60.1052 117.045 60.2024C116.918 60.2976 116.855 60.4238 116.855 60.581C116.855 60.7279 116.929 60.851 117.076 60.9502C117.225 61.0495 117.443 61.1426 117.73 61.2295C118.26 61.3888 118.646 61.5864 118.888 61.8222C119.13 62.058 119.251 62.3518 119.251 62.7035C119.251 63.0944 119.103 63.4016 118.807 63.6251C118.511 63.8464 118.113 63.9571 117.612 63.9571C117.265 63.9571 116.948 63.894 116.663 63.7678C116.377 63.6395 116.159 63.4647 116.008 63.2434C115.859 63.022 115.785 62.7655 115.785 62.4738H116.719C116.719 62.9724 117.017 63.2217 117.612 63.2217C117.834 63.2217 118.007 63.1772 118.131 63.0882C118.255 62.9972 118.317 62.871 118.317 62.7097Z" fill="#2196F3"/>
</svg>
