<svg width="181" height="96" viewBox="0 0 181 96" fill="none" xmlns="http://www.w3.org/2000/svg">
<rect x="1.25029" y="0.674236" width="178.999" height="94.2657" rx="3.70708" stroke="#AFB1B8" stroke-width="1.05917"/>
<path d="M73.8027 21.328L81.5427 28.6553H103.134V49.0949L110.874 56.4222V21.328H73.8027Z" fill="#AFB1B8"/>
<path d="M67.4482 28.3466V62.4382H103.46V48.887L81.7715 28.355L67.4482 28.3466ZM96.5998 57.4514H73.1466V34.523H74.8045V55.8989H96.5998V57.4514Z" fill="#AFB1B8"/>
<path d="M77.818 68.4655L78.6843 66.6813H79.4083L78.1464 69.0603V70.4463H77.4896V69.0603L76.2251 66.6813H76.9518L77.818 68.4655ZM81.5365 69.5697H80.0781L79.7729 70.4463H79.0928L80.5151 66.6813H81.1021L82.5269 70.4463H81.8442L81.5365 69.5697ZM80.2616 69.0422H81.3529L80.8073 67.4803L80.2616 69.0422ZM84.1146 69.43C84.1146 69.2559 84.162 69.0965 84.2568 68.9517C84.3516 68.8051 84.5387 68.6319 84.8179 68.4319C84.6714 68.2475 84.5688 68.0906 84.5102 67.9613C84.4533 67.832 84.4249 67.707 84.4249 67.5863C84.4249 67.2915 84.5145 67.0588 84.6938 66.8882C84.8731 66.7158 85.1144 66.6296 85.4178 66.6296C85.6919 66.6296 85.916 66.7106 86.0902 66.8726C86.266 67.033 86.3539 67.2321 86.3539 67.47C86.3539 67.6268 86.3143 67.7717 86.235 67.9044C86.1557 68.0354 86.0255 68.1664 85.8445 68.2974L85.5885 68.4836L86.3151 69.3421C86.4203 69.1353 86.4729 68.9051 86.4729 68.6517H87.0185C87.0185 69.1154 86.9099 69.4956 86.6927 69.7921L87.246 70.4463H86.5168L86.3048 70.1955C86.0359 70.3972 85.7152 70.498 85.3429 70.498C84.9705 70.498 84.6723 70.3997 84.4481 70.2032C84.2258 70.005 84.1146 69.7472 84.1146 69.43ZM85.361 69.9964C85.573 69.9964 85.7712 69.9257 85.9557 69.7843L85.1334 68.8146L85.0532 68.8715C84.8464 69.0284 84.7429 69.2077 84.7429 69.4094C84.7429 69.5835 84.799 69.7248 84.911 69.8334C85.0231 69.942 85.173 69.9964 85.361 69.9964ZM85.0144 67.5708C85.0144 67.7156 85.1032 67.8975 85.2808 68.1164L85.5678 67.9199L85.648 67.8553C85.7549 67.7604 85.8083 67.6389 85.8083 67.4907C85.8083 67.3924 85.7712 67.3088 85.6971 67.2398C85.623 67.1692 85.529 67.1338 85.4153 67.1338C85.2929 67.1338 85.1955 67.1752 85.1231 67.2579C85.0506 67.3407 85.0144 67.445 85.0144 67.5708ZM91.854 69.2206C91.8161 69.6223 91.6678 69.936 91.4093 70.1618C91.1507 70.386 90.8068 70.498 90.3775 70.498C90.0775 70.498 89.8129 70.4273 89.5837 70.286C89.3561 70.1429 89.1803 69.9403 89.0561 69.6783C88.932 69.4163 88.8674 69.112 88.8622 68.7655V68.4138C88.8622 68.0587 88.9251 67.7458 89.051 67.4751C89.1768 67.2045 89.357 66.9959 89.5914 66.8494C89.8276 66.7028 90.1 66.6296 90.4085 66.6296C90.824 66.6296 91.1584 66.7425 91.4118 66.9683C91.6653 67.1941 91.8127 67.5131 91.854 67.9251H91.2024C91.1714 67.6544 91.0921 67.4596 90.9645 67.3407C90.8387 67.22 90.6533 67.1597 90.4085 67.1597C90.1241 67.1597 89.9052 67.264 89.7517 67.4726C89.6 67.6794 89.5225 67.9837 89.519 68.3854V68.7189C89.519 69.1258 89.5914 69.4361 89.7362 69.6498C89.8827 69.8636 90.0965 69.9705 90.3775 69.9705C90.6344 69.9705 90.8274 69.9127 90.9567 69.7972C91.086 69.6817 91.1679 69.4895 91.2024 69.2206H91.854ZM95.4458 68.6621C95.4458 69.031 95.382 69.3551 95.2544 69.6343C95.1269 69.9119 94.9441 70.1256 94.7062 70.2756C94.4701 70.4239 94.1977 70.498 93.8891 70.498C93.584 70.498 93.3116 70.4239 93.072 70.2756C92.8341 70.1256 92.6496 69.9127 92.5186 69.6369C92.3893 69.3611 92.3238 69.043 92.3221 68.6827V68.4707C92.3221 68.1035 92.3867 67.7794 92.516 67.4984C92.647 67.2174 92.8306 67.0028 93.0668 66.8545C93.3047 66.7046 93.5771 66.6296 93.8839 66.6296C94.1908 66.6296 94.4623 66.7037 94.6985 66.852C94.9364 66.9985 95.12 67.2105 95.2493 67.4881C95.3785 67.7639 95.4441 68.0854 95.4458 68.4526V68.6621ZM94.7916 68.4655C94.7916 68.0483 94.7123 67.7286 94.5537 67.5062C94.3968 67.2838 94.1735 67.1726 93.8839 67.1726C93.6012 67.1726 93.3797 67.2838 93.2194 67.5062C93.0608 67.7268 92.9797 68.0397 92.9763 68.4448V68.6621C92.9763 69.0758 93.0565 69.3956 93.2168 69.6214C93.3788 69.8472 93.6029 69.9601 93.8891 69.9601C94.1787 69.9601 94.4011 69.8498 94.5562 69.6292C94.7131 69.4085 94.7916 69.0861 94.7916 68.6621V68.4655Z" fill="#AFB1B8"/>
</svg>
