<svg width="181" height="96" viewBox="0 0 181 96" fill="none" xmlns="http://www.w3.org/2000/svg">
<rect x="1.08329" y="0.674236" width="178.999" height="94.2657" rx="3.70708" stroke="#AFB1B8" stroke-width="1.05917"/>
<g clip-path="url(#clip0)">
<path d="M87.381 23.3769H87.5257C87.7936 23.3769 88.083 23.4039 88.3697 23.4281C89.6329 23.5172 90.8872 23.7063 92.1209 23.9937V20.961C90.8507 20.6423 89.5551 20.4359 88.2491 20.3442C87.7535 20.3065 87.2256 20.2823 86.6844 20.2688H86.2316C83.6102 20.2787 81.0002 20.6152 78.4613 21.2707C75.5695 21.9919 72.7938 23.1209 70.2168 24.624V54.7008C72.6981 53.3525 75.3384 52.3237 78.0755 51.6384C80.2366 51.087 82.4458 50.7478 84.6721 50.6257H84.7606C85.133 50.6069 85.5054 50.5961 85.8886 50.5934V47.5122C82.9958 47.5494 80.1176 47.9319 77.3145 48.6515C76.2776 48.9208 75.2755 49.2117 74.335 49.5349L73.2633 49.8985V26.4474L73.7214 26.2265C77.218 24.5685 80.9998 23.6037 84.8597 23.385C84.8918 23.3827 84.9241 23.3827 84.9562 23.385C85.3822 23.3635 85.8109 23.3527 86.2316 23.3527H86.6924H86.7138C86.9362 23.3581 87.1586 23.3635 87.381 23.3769Z" fill="#AFB1B8"/>
<path d="M94.9374 26.5523C94.2327 26.5523 93.5361 26.5281 92.8636 26.4769C92.0597 26.4177 91.2345 26.3207 90.4521 26.1887C89.9752 26.1079 89.5063 26.011 89.0508 25.9059V55.638C90.9792 56.1155 92.9594 56.3489 94.9455 56.3329C97.5666 56.3223 100.176 55.9867 102.716 55.3336C105.608 54.6115 108.384 53.4826 110.963 51.9804V22.4396C108.482 23.7871 105.843 24.8168 103.107 25.5046C100.437 26.1904 97.6931 26.5423 94.9374 26.5523ZM106.826 27.0668L107.898 26.7059V50.1651L107.439 50.3859C105.682 51.2221 103.847 51.8816 101.96 52.3548C99.6691 52.9475 97.3138 53.2524 94.9481 53.2624C94.2408 53.2624 93.5388 53.2328 92.8582 53.1736L92.124 53.1089V50.262V28.9844L92.9788 29.041C93.6004 29.0814 94.2435 29.1003 94.9428 29.1003C97.9461 29.0896 100.937 28.706 103.846 27.9583C104.846 27.6943 105.84 27.3981 106.826 27.0668Z" fill="#AFB1B8"/>
<path d="M72.2989 64.9788C72.1448 64.8189 71.9591 64.6935 71.7537 64.6104C71.5483 64.5274 71.3278 64.4886 71.1066 64.4966C70.8708 64.4935 70.6367 64.5375 70.418 64.6259C70.2174 64.7058 70.0351 64.8259 69.8821 64.9788C69.7308 65.1321 69.613 65.3156 69.5364 65.5174C69.4524 65.7289 69.4106 65.955 69.4132 66.1827V70.2012C69.4036 70.4844 69.4576 70.7661 69.5713 71.0254C69.6661 71.2313 69.8031 71.4148 69.9732 71.564C70.1338 71.6992 70.3223 71.7968 70.5251 71.8495C70.7205 71.9045 70.9224 71.9325 71.1253 71.933C71.3491 71.9353 71.5706 71.8874 71.7737 71.793C71.9746 71.7051 72.1566 71.5789 72.3096 71.4213C72.4588 71.2652 72.5779 71.0825 72.6606 70.8826C72.7465 70.68 72.7903 70.4618 72.7892 70.2416V69.7918H71.7389V70.15C71.742 70.2723 71.7211 70.3941 71.6773 70.5082C71.6431 70.5938 71.591 70.6709 71.5246 70.7345C71.4595 70.787 71.3849 70.8264 71.3048 70.8503C71.2339 70.8739 71.1598 70.8866 71.0851 70.888C70.9914 70.8989 70.8964 70.8847 70.8098 70.8469C70.7232 70.8091 70.6481 70.7489 70.5921 70.6725C70.4931 70.511 70.4446 70.3234 70.4528 70.1339V66.3874C70.4463 66.1796 70.4904 65.9734 70.5814 65.7868C70.6359 65.7019 70.7131 65.6342 70.804 65.5914C70.895 65.5485 70.9961 65.5322 71.0959 65.5444C71.1864 65.5411 71.2763 65.56 71.358 65.5994C71.4397 65.6388 71.5106 65.6976 71.5647 65.7706C71.6823 65.9249 71.7437 66.115 71.7389 66.3093V66.6567H72.7785V66.2473C72.7806 66.0069 72.737 65.7683 72.6499 65.5444C72.5723 65.3338 72.4529 65.1414 72.2989 64.9788Z" fill="#AFB1B8"/>
<path d="M78.5388 64.9329C78.2039 64.6501 77.7812 64.4939 77.3438 64.4912C77.1299 64.4921 76.9177 64.5304 76.7169 64.6043C76.5129 64.6774 76.3246 64.789 76.1622 64.9329C75.9882 65.0893 75.8494 65.2812 75.755 65.4958C75.6491 65.7413 75.5971 66.0068 75.6022 66.2742V70.1284C75.595 70.3995 75.6471 70.669 75.755 70.9176C75.85 71.1248 75.989 71.3087 76.1622 71.4563C76.3228 71.6053 76.5114 71.7207 76.7169 71.7956C76.9177 71.8696 77.1299 71.9078 77.3438 71.9087C77.5578 71.9083 77.7701 71.87 77.9708 71.7956C78.1798 71.7197 78.3726 71.6045 78.5388 71.4563C78.7064 71.3059 78.8414 71.1226 78.9354 70.9176C79.0432 70.669 79.0954 70.3995 79.0881 70.1284V66.2742C79.0933 66.0068 79.0412 65.7413 78.9354 65.4958C78.8419 65.2835 78.7071 65.0921 78.5388 64.9329ZM78.0485 70.1284C78.0574 70.2311 78.0432 70.3346 78.007 70.431C77.9708 70.5275 77.9136 70.6146 77.8395 70.6859C77.7008 70.8023 77.5258 70.866 77.3452 70.866C77.1645 70.866 76.9896 70.8023 76.8508 70.6859C76.7767 70.6146 76.7195 70.5275 76.6833 70.431C76.6472 70.3346 76.633 70.2311 76.6418 70.1284V66.2742C76.633 66.1715 76.6472 66.0681 76.6833 65.9716C76.7195 65.8751 76.7767 65.788 76.8508 65.7167C76.9896 65.6003 77.1645 65.5366 77.3452 65.5366C77.5258 65.5366 77.7008 65.6003 77.8395 65.7167C77.9136 65.788 77.9708 65.8751 78.007 65.9716C78.0432 66.0681 78.0574 66.1715 78.0485 66.2742V70.1284Z" fill="#AFB1B8"/>
<path d="M86.7356 71.8495V64.5532H85.7254L84.3991 68.4155H84.3804L83.0434 64.5532H82.0439V71.8495H83.0862V67.4109H83.105L84.1258 70.5486H84.6456L85.6745 67.4109H85.6933V71.8495H86.7356Z" fill="#AFB1B8"/>
<path d="M92.6574 65.0648C92.4969 64.8848 92.2943 64.7478 92.068 64.6662C91.824 64.5868 91.5687 64.5486 91.3124 64.5531H89.7637V71.8494H90.8033V68.9998H91.3392C91.6635 69.0146 91.9863 68.946 92.2769 68.8005C92.5133 68.6693 92.7104 68.4768 92.8477 68.243C92.9679 68.0489 93.049 67.8329 93.0861 67.6074C93.127 67.3328 93.1459 67.0554 93.1424 66.7778C93.1525 66.4274 93.1183 66.0772 93.0406 65.7355C92.9712 65.483 92.8394 65.2523 92.6574 65.0648ZM92.1215 67.2895C92.117 67.4217 92.0841 67.5512 92.0251 67.6693C91.9657 67.7815 91.8717 67.8713 91.7571 67.9252C91.6031 67.994 91.4351 68.0254 91.2668 68.0168H90.7926V65.5362H91.3284C91.4898 65.5283 91.6507 65.5597 91.7973 65.6277C91.9048 65.6894 91.9902 65.7837 92.0412 65.8971C92.098 66.0253 92.1289 66.1635 92.1323 66.3038C92.1323 66.4573 92.1323 66.6189 92.1323 66.7886C92.1323 66.9583 92.143 67.1333 92.1323 67.2895H92.1215Z" fill="#AFB1B8"/>
<path d="M97.5818 64.5532H96.7297L95.1221 71.8495H96.1617L96.4671 70.282H97.8845L98.19 71.8495H99.2296L97.5818 64.5532ZM96.6225 69.2882L97.1343 66.6433H97.1531L97.6621 69.2882H96.6225Z" fill="#AFB1B8"/>
<path d="M104.298 68.9488H104.28L102.709 64.5532H101.71V71.8495H102.75V67.4621H102.771L104.36 71.8495H105.338V64.5532H104.298V68.9488Z" fill="#AFB1B8"/>
<path d="M110.652 64.5532L109.816 67.454H109.795L108.959 64.5532H107.857L109.286 68.7656V71.8495H110.325V68.7656L111.753 64.5532H110.652Z" fill="#AFB1B8"/>
<path d="M69.3994 73.9098H69.9005V75.3157H70.2407V73.9098H70.7391V73.6216H69.3994V73.9098Z" fill="#AFB1B8"/>
<path d="M73.6115 73.6216L72.9551 75.3157H73.3168L73.4561 74.9306H74.1313L74.276 75.3157H74.6458L73.9732 73.6216H73.6115ZM73.5579 74.6451L73.7884 74.0175L74.0188 74.6451H73.5579Z" fill="#AFB1B8"/>
<path d="M77.775 74.691H78.1662V74.9092C78.052 75.0007 77.9104 75.051 77.7643 75.0519C77.696 75.0557 77.6277 75.0431 77.5653 75.0149C77.5028 74.9868 77.4479 74.9441 77.4053 74.8903C77.3154 74.7613 77.2711 74.6058 77.2793 74.4486C77.2793 74.0715 77.4428 73.883 77.767 73.883C77.8523 73.8745 77.9379 73.897 78.0082 73.9464C78.0784 73.9958 78.1288 74.0688 78.1501 74.1523L78.4851 74.0877C78.4127 73.7564 78.1743 73.5894 77.767 73.5894C77.5492 73.5836 77.3373 73.6616 77.1748 73.8076C77.0895 73.8919 77.0235 73.9938 76.9813 74.1064C76.9392 74.219 76.9221 74.3394 76.931 74.4594C76.9212 74.6912 76.9987 74.9182 77.1481 75.095C77.2311 75.1806 77.3315 75.247 77.4425 75.2898C77.5536 75.3326 77.6725 75.3507 77.7911 75.3428C78.0562 75.3502 78.3137 75.2536 78.5092 75.0735V74.4055H77.775V74.691Z" fill="#AFB1B8"/>
<path d="M82.0275 73.6216H81.6846V75.3157H82.8715V75.0275H82.0275V73.6216Z" fill="#AFB1B8"/>
<path d="M85.6232 73.6216H85.2803V75.3157H85.6232V73.6216Z" fill="#AFB1B8"/>
<path d="M89.1385 74.7528L88.4446 73.6216H88.1123V75.3157H88.4312V74.2087L89.1117 75.3157H89.452V73.6216H89.1385V74.7528Z" fill="#AFB1B8"/>
<path d="M92.3166 74.5696H93.1606V74.2815H92.3166V73.9098H93.2249V73.6216H91.9736V75.3157H93.2597V75.0275H92.3166V74.5696Z" fill="#AFB1B8"/>
<path d="M100.022 74.2895H99.3549V73.6216H99.0146V75.3157H99.3549V74.575H100.022V75.3157H100.362V73.6216H100.022V74.2895Z" fill="#AFB1B8"/>
<path d="M103.219 74.5696H104.066V74.2815H103.219V73.9098H104.13V73.6216H102.879V75.3157H104.162V75.0275H103.219V74.5696Z" fill="#AFB1B8"/>
<path d="M107.554 74.5697C107.849 74.5239 107.999 74.3677 107.999 74.0984C108.008 74.0263 107.997 73.9533 107.967 73.8869C107.938 73.8206 107.892 73.7634 107.833 73.7213C107.679 73.6443 107.508 73.6099 107.337 73.6217H106.619V75.3158H106.959V74.6074H107.026C107.099 74.6029 107.171 74.6159 107.238 74.6451C107.288 74.6758 107.329 74.7184 107.359 74.769L107.728 75.3077H108.136L107.929 74.9764C107.838 74.8129 107.71 74.6735 107.554 74.5697ZM107.211 74.3354H106.959V73.9098H107.227C107.344 73.9004 107.462 73.9141 107.573 73.9502C107.598 73.9721 107.617 73.9993 107.63 74.0298C107.643 74.0604 107.649 74.0934 107.647 74.1265C107.646 74.1596 107.637 74.192 107.621 74.2211C107.606 74.2503 107.584 74.2755 107.557 74.295C107.445 74.3293 107.328 74.343 107.211 74.3354Z" fill="#AFB1B8"/>
<path d="M110.823 74.5696H111.667V74.2815H110.823V73.9098H111.734V73.6216H110.48V75.3157H111.767V75.0275H110.823V74.5696Z" fill="#AFB1B8"/>
</g>
<defs>
<clipPath id="clip0">
<rect width="42.3666" height="55.0766" fill="white" transform="translate(69.3994 20.2688)"/>
</clipPath>
</defs>
</svg>
