<svg width="181" height="96" viewBox="0 0 181 96" fill="none" xmlns="http://www.w3.org/2000/svg">
<rect x="1.4163" y="0.674236" width="178.999" height="94.2657" rx="3.70708" stroke="#AFB1B8" stroke-width="1.05917"/>
<path d="M91.7004 46.0631C91.2577 45.4168 91.0459 44.653 91.0961 43.8842V40.7251C91.0961 39.7567 91.2964 39.0208 91.697 38.5173C92.0975 38.0138 92.7855 37.7631 93.7609 37.7653C94.6774 37.7653 95.328 37.9795 95.7128 38.408C96.1324 38.9547 96.3366 39.6233 96.2898 40.2977V41.04H94.6502V40.288C94.6561 40.0419 94.6402 39.7957 94.6027 39.5521C94.5792 39.3855 94.4966 39.2314 94.3685 39.115C94.2001 38.9896 93.988 38.9287 93.7745 38.9447C93.5498 38.9288 93.327 38.993 93.1498 39.1247C93.0071 39.2536 92.9118 39.4226 92.8783 39.6067C92.8313 39.8646 92.8097 40.126 92.8138 40.3877V44.2216C92.7879 44.5915 92.8603 44.9616 93.0242 45.2982C93.1058 45.4121 93.219 45.5024 93.3514 45.5591C93.4839 45.6158 93.6303 45.6368 93.7745 45.6196C93.9845 45.6359 94.1929 45.5736 94.3549 45.446C94.4885 45.3205 94.5745 45.1567 94.5993 44.9801C94.6376 44.7257 94.6547 44.4689 94.6502 44.212V43.4343H96.2898V44.1445C96.3358 44.8474 96.1367 45.5452 95.7229 46.1306C95.3461 46.5998 94.7046 46.8344 93.7609 46.8344C92.8172 46.8344 92.1043 46.5837 91.7004 46.0631Z" fill="#AFB1B8"/>
<path d="M98.5265 46.0952C98.1123 45.6035 97.9053 44.8869 97.9053 43.9388V40.6158C97.9053 39.6774 98.1123 38.9672 98.5265 38.4851C98.9406 38.0031 99.6331 37.7631 100.604 37.7653C101.568 37.7653 102.257 38.0052 102.671 38.4851C103.085 38.9672 103.296 39.6774 103.296 40.6158V43.9388C103.296 44.8772 103.085 45.5971 102.664 46.092C102.243 46.5869 101.558 46.8344 100.604 46.8344C99.65 46.8344 98.944 46.5837 98.5265 46.0952ZM101.368 45.2982C101.516 44.9902 101.584 44.6528 101.565 44.3148V40.2463C101.584 39.9148 101.517 39.5839 101.371 39.2821C101.288 39.1659 101.172 39.0741 101.036 39.0172C100.901 38.9604 100.751 38.9408 100.604 38.9608C100.457 38.9414 100.307 38.9611 100.17 39.0179C100.034 39.0746 99.9176 39.1661 99.8333 39.2821C99.6841 39.583 99.6164 39.9144 99.6365 40.2463V44.3341C99.6158 44.6722 99.6835 45.01 99.8333 45.3175C99.9289 45.4212 100.047 45.5042 100.179 45.5612C100.311 45.6181 100.455 45.6476 100.601 45.6476C100.746 45.6476 100.89 45.6181 101.022 45.5612C101.154 45.5042 101.272 45.4212 101.368 45.3175V45.2982Z" fill="#AFB1B8"/>
<path d="M105.268 37.8622H107.033L108.36 43.9933L109.718 37.8622H111.436L111.609 46.7117H110.339L110.204 40.5614L108.893 46.7117H107.875L106.517 40.5389L106.392 46.7117H105.108L105.268 37.8622Z" fill="#AFB1B8"/>
<path d="M113.588 37.8622H116.338C117.922 37.8622 118.714 38.6998 118.714 40.375C118.714 41.9796 117.88 42.7807 116.212 42.7786H115.275V46.7117H113.578L113.588 37.8622ZM115.937 41.6443C116.105 41.6644 116.275 41.6499 116.437 41.6016C116.598 41.5533 116.746 41.4725 116.871 41.3647C117.065 41.0658 117.151 40.7148 117.115 40.3654C117.124 40.0954 117.097 39.8255 117.034 39.562C117.01 39.4741 116.967 39.3915 116.909 39.3192C116.85 39.247 116.778 39.1864 116.694 39.1411C116.459 39.0341 116.198 38.9855 115.937 38.9997H115.279V41.6443H115.937Z" fill="#AFB1B8"/>
<path d="M121.161 37.8622H122.984L124.855 46.7117H123.273L122.903 44.6713H121.277L120.897 46.7117H119.291L121.161 37.8622ZM122.719 43.6462L122.085 39.9316L121.45 43.6462H122.719Z" fill="#AFB1B8"/>
<path d="M126.365 37.8622H127.553L129.827 42.9104V37.8622H131.236V46.7117H130.106L127.818 41.4419V46.7117H126.361L126.365 37.8622Z" fill="#AFB1B8"/>
<path d="M134.536 43.3376L132.646 37.8746H134.238L135.392 41.3838L136.475 37.8746H138.033L136.166 43.3376V46.7118H134.536V43.3376Z" fill="#AFB1B8"/>
<path d="M94.3211 50.5809V51.0437H92.9361V54.6397H92.3556V51.0437H90.9639V50.5809H94.3211Z" fill="#AFB1B8"/>
<path d="M98.6628 54.64H98.2148C98.1692 54.6427 98.1243 54.6289 98.0892 54.6015C98.0553 54.5779 98.0293 54.5455 98.0145 54.5083L97.6139 53.5442H95.6926L95.292 54.5083C95.2806 54.5486 95.2597 54.5859 95.2309 54.6175C95.1954 54.6444 95.1507 54.6581 95.1053 54.6561H94.6572L96.3545 50.5975H96.9452L98.6628 54.64ZM95.8521 53.1329H97.4544L96.7755 51.4812C96.7254 51.3563 96.6834 51.2286 96.6498 51.0988C96.6261 51.176 96.6057 51.2499 96.5854 51.3141L96.5243 51.4844L95.8521 53.1329Z" fill="#AFB1B8"/>
<path d="M101.589 54.2414C101.695 54.2466 101.802 54.2466 101.908 54.2414C102 54.2324 102.091 54.2163 102.18 54.1931C102.263 54.1738 102.345 54.1491 102.424 54.1192C102.499 54.0903 102.574 54.0549 102.652 54.0196V53.1069H101.973C101.956 53.1078 101.939 53.1054 101.923 53.0998C101.908 53.0943 101.893 53.0858 101.881 53.0747C101.87 53.0656 101.861 53.0542 101.855 53.0414C101.849 53.0286 101.847 53.0147 101.847 53.0008V52.689H103.164V54.2446C103.057 54.3174 102.943 54.3819 102.825 54.4374C102.704 54.4939 102.578 54.5402 102.448 54.5756C102.309 54.6143 102.167 54.6422 102.024 54.6592C101.859 54.6764 101.694 54.685 101.528 54.6849C101.235 54.6872 100.945 54.6359 100.673 54.5338C100.418 54.4371 100.188 54.2928 99.9937 54.1096C99.8047 53.9245 99.6559 53.7061 99.5558 53.4668C99.4488 53.1978 99.3958 52.9122 99.3996 52.6248C99.396 52.3355 99.4478 52.0481 99.5524 51.7763C99.65 51.5358 99.7991 51.317 99.9903 51.1335C100.184 50.9509 100.415 50.8077 100.669 50.7125C100.96 50.609 101.268 50.5578 101.579 50.5615C101.737 50.5613 101.895 50.5731 102.051 50.5968C102.189 50.6181 102.324 50.6526 102.455 50.6997C102.573 50.7419 102.687 50.7958 102.794 50.8604C102.898 50.9238 102.997 50.9947 103.089 51.0725L102.927 51.3232C102.914 51.3461 102.895 51.3653 102.871 51.3789C102.848 51.3924 102.821 51.3998 102.794 51.4003C102.757 51.3991 102.72 51.388 102.689 51.3681C102.638 51.3424 102.584 51.3103 102.523 51.2717C102.45 51.2289 102.374 51.1923 102.295 51.1625C102.194 51.124 102.089 51.0939 101.983 51.0725C101.841 51.0477 101.696 51.0358 101.552 51.0371C101.328 51.0348 101.105 51.0729 100.897 51.1496C100.708 51.2213 100.537 51.331 100.398 51.471C100.257 51.6169 100.149 51.7887 100.082 51.9756C99.9303 52.4152 99.9303 52.889 100.082 53.3286C100.156 53.5195 100.272 53.6935 100.421 53.8396C100.561 53.9789 100.73 54.0884 100.917 54.161C101.133 54.2312 101.362 54.2585 101.589 54.2414Z" fill="#AFB1B8"/>
<path d="M107 54.1769H108.853V54.6397H106.433V50.5809H107.013L107 54.1769Z" fill="#AFB1B8"/>
<path d="M110.781 54.6397H110.2V50.5809H110.781V54.6397Z" fill="#AFB1B8"/>
<path d="M112.94 50.6003C112.975 50.6189 113.005 50.6441 113.028 50.6742L115.51 53.7337C115.506 53.6856 115.506 53.6373 115.51 53.5891C115.51 53.5441 115.51 53.4991 115.51 53.4573V50.5649H116.016V54.64H115.724C115.68 54.6433 115.637 54.6356 115.598 54.6175C115.563 54.5973 115.532 54.5711 115.506 54.5404L113.028 51.4841C113.028 51.5323 113.028 51.5773 113.028 51.6223C113.028 51.6673 113.028 51.709 113.028 51.7476V54.64H112.543V50.581H112.845C112.878 50.5811 112.91 50.5876 112.94 50.6003Z" fill="#AFB1B8"/>
<path d="M120.289 50.5809V51.0276H118.232V52.3677H119.899V52.7983H118.232V54.1834H120.289V54.6301H117.635V50.5809H120.289Z" fill="#AFB1B8"/>
<path d="M59.4627 25.5158L85.2375 32.4442V56.7224L59.4627 49.7973V25.5158ZM57.8096 23.4463V50.9766L86.8872 58.7952V31.268L57.8096 23.4463Z" fill="#AFB1B8"/>
<path d="M73.3935 71.575L44.3125 63.75V36.2225L73.3935 44.0444V71.575Z" fill="#AFB1B8"/>
<path d="M58.2912 25.2041L83.7298 32.0456L72.9115 42.2901L47.4694 35.4454L58.2912 25.2041ZM57.8092 23.4463L44.3125 36.2231L73.3935 44.0447L86.8868 31.2679L57.8092 23.4463Z" fill="#AFB1B8"/>
<path d="M75.0303 70.0263L86.8873 58.7985L75.0303 55.6075V70.0263Z" fill="#AFB1B8"/>
</svg>
