<svg width="181" height="96" viewBox="0 0 181 96" fill="none" xmlns="http://www.w3.org/2000/svg">
<rect x="0.582317" y="0.674236" width="178.999" height="94.2657" rx="3.70708" stroke="#AFB1B8" stroke-width="1.05917"/>
<g clip-path="url(#clip0)">
<path d="M64.1194 65.0479C64.3628 65.3505 64.4926 65.7295 64.4858 66.1184C64.4982 66.3721 64.4536 66.6254 64.3553 66.8594C64.257 67.0935 64.1076 67.3023 63.918 67.4705C63.445 67.8292 62.859 68.0045 62.2676 67.9643H59.3662V61.1804H62.2082C62.7692 61.143 63.3257 61.3023 63.7827 61.6311C63.9662 61.7854 64.1116 61.9803 64.2072 62.2006C64.3029 62.4209 64.3463 62.6604 64.3339 62.9004C64.3506 63.2747 64.2335 63.6425 64.0038 63.9377C63.7833 64.2073 63.4786 64.3941 63.139 64.468C63.5239 64.5385 63.8714 64.7441 64.1194 65.0479ZM60.7162 64.0239H61.9309C62.207 64.0444 62.4812 63.9644 62.7033 63.7985C62.7945 63.7156 62.8655 63.6126 62.9107 63.4977C62.9559 63.3827 62.9742 63.2589 62.9641 63.1357C62.9727 63.013 62.954 62.8899 62.9095 62.7753C62.865 62.6607 62.7957 62.5574 62.7066 62.4729C62.4778 62.3024 62.1951 62.2211 61.9111 62.2442H60.7162V64.0239ZM62.8221 66.6254C62.9196 66.5405 62.9963 66.4341 63.0461 66.3145C63.0959 66.195 63.1175 66.0655 63.1093 65.9361C63.1168 65.8053 63.0941 65.6745 63.0432 65.5538C62.9923 65.4331 62.9144 65.3258 62.8155 65.2402C62.5779 65.0633 62.2856 64.9764 61.9903 64.9949H60.7162V66.8607H62.0069C62.2973 66.8776 62.5849 66.7946 62.8221 66.6254Z" fill="#AFB1B8"/>
<path d="M69.9287 67.9644L68.3476 65.3132H67.7535V67.9644H66.3936V61.1805H68.9682C69.6171 61.135 70.2587 61.3414 70.7605 61.7572C71.1204 62.1253 71.3375 62.6105 71.3726 63.1252C71.4077 63.6398 71.2585 64.1502 70.952 64.5642C70.6343 64.9296 70.2004 65.1731 69.7241 65.2535L71.4075 67.9644H69.9287ZM67.7535 64.3885H68.8659C69.6382 64.3885 70.0244 64.0461 70.0244 63.3612C70.0323 63.2213 70.0111 63.0813 69.9623 62.9501C69.9134 62.8189 69.8379 62.6993 69.7406 62.5989C69.4965 62.3951 69.1821 62.2963 68.8659 62.3239H67.7403L67.7535 64.3885Z" fill="#AFB1B8"/>
<path d="M77.3626 66.5988H74.6526L74.174 67.9642H72.748L75.2369 61.2565H76.7783L79.2572 67.9642H77.8313L77.3626 66.5988ZM76.9995 65.5714L76.0092 62.708L75.019 65.5714H76.9995Z" fill="#AFB1B8"/>
<path d="M86.6669 67.9643H85.3169L82.2901 63.3511V67.9643H80.9434V61.1804H82.2901L85.3169 65.8201V61.1804H86.6669V67.9643Z" fill="#AFB1B8"/>
<path d="M94.3719 66.3405C94.0927 66.8527 93.6674 67.2693 93.1506 67.5369C92.5629 67.8349 91.9107 67.9818 91.2526 67.9644H88.8496V61.1805H91.2526C91.9096 61.1632 92.5609 61.3065 93.1506 61.598C93.6673 61.8595 94.0931 62.272 94.3719 62.7812C94.6497 63.3329 94.7945 63.9425 94.7945 64.5608C94.7945 65.1791 94.6497 65.7887 94.3719 66.3405ZM92.8271 66.1781C93.2124 65.7274 93.4242 65.1531 93.4242 64.5592C93.4242 63.9652 93.2124 63.3909 92.8271 62.9402C92.3614 62.532 91.7541 62.3248 91.1371 62.3636H90.1996V66.7547H91.1371C91.7541 66.7935 92.3614 66.5863 92.8271 66.1781Z" fill="#AFB1B8"/>
<path d="M78.207 23.4463C78.207 23.4463 95.632 30.0512 95.2623 39.6091V55.7751C95.2623 55.7751 77.8505 49.1669 78.2136 39.6091L78.207 23.4463Z" fill="#AFB1B8"/>
<path d="M110.786 51.9904C114.077 49.7166 117.884 48.3082 121.857 47.8942V42.8336C117.279 44.6053 113.395 47.8178 110.786 51.9904Z" fill="#AFB1B8"/>
<path d="M108.809 53.515C111.503 48.0696 116.172 43.8675 121.857 41.7732V27.1913C121.857 27.1913 97.042 36.6 97.5668 50.2109V73.2271C97.5668 73.2271 98.6726 72.8063 100.412 72.0175C100.412 71.2818 100.412 70.5394 100.491 69.7938C101.005 63.4749 103.997 57.6195 108.809 53.515Z" fill="#AFB1B8"/>
<path d="M106.449 62.0653C106.58 60.469 106.87 58.8901 107.317 57.3527C104.321 60.8973 102.506 65.2957 102.129 69.9296C102.092 70.367 102.072 70.8045 102.062 71.2552C103.472 70.5758 105.112 69.7274 106.835 68.7299C106.396 66.5376 106.266 64.294 106.449 62.0653Z" fill="#AFB1B8"/>
<path d="M107.437 62.1482C107.271 64.1646 107.375 66.1941 107.744 68.1832C114.524 64.1102 122.142 57.8167 121.848 50.2109V49.5481C117.004 50.0923 112.472 52.2183 108.948 55.5996C108.123 57.695 107.614 59.9021 107.437 62.1482Z" fill="#AFB1B8"/>
</g>
<defs>
<clipPath id="clip0">
<rect width="62.4908" height="49.7808" fill="white" transform="translate(59.3662 23.4463)"/>
</clipPath>
</defs>
</svg>
